<?xml version="1.0" encoding="UTF-8"?>
<svg version="1.1" xmlns="http://www.w3.org/2000/svg" width="254" height="243">
<path d="M0 0 C0.80505525 -0.00523668 1.6101105 -0.01047336 2.43956137 -0.01586872 C5.14029967 -0.03088462 7.84084878 -0.03157422 10.54162598 -0.03224182 C12.47659119 -0.03986207 14.41155337 -0.04828934 16.34651184 -0.0574646 C21.60464615 -0.07942573 26.8627223 -0.08821032 32.12089729 -0.09329104 C35.40414752 -0.09693175 38.68738243 -0.10317021 41.97062683 -0.11029243 C53.41926749 -0.13478949 64.86786279 -0.14784004 76.31652832 -0.15138245 C86.99802911 -0.15502117 97.67924317 -0.18494003 108.36065626 -0.22678703 C117.52506484 -0.26143573 126.68937812 -0.27692992 135.8538518 -0.27762848 C141.33027464 -0.27842294 146.80640529 -0.28723965 152.28276062 -0.31562614 C157.43089901 -0.34171497 162.57850097 -0.34406353 167.72667503 -0.3279705 C169.61815239 -0.32614886 171.50965996 -0.33291088 173.40107155 -0.34878922 C175.97936771 -0.36911806 178.55576341 -0.35877737 181.1340332 -0.34057617 C181.88617017 -0.35377614 182.63830714 -0.36697611 183.41323614 -0.38057607 C187.12451141 -0.32054638 188.72543041 -0.05556068 191.43782806 2.56257534 C191.97546028 3.45739652 192.5130925 4.35221769 193.0670166 5.27415466 C193.47413974 5.87707148 193.88126287 6.47998829 194.30072308 7.10117531 C195.45493548 10.37417663 195.34533421 13.61389249 195.32771301 17.04182434 C195.33153856 17.82913425 195.33536411 18.61644416 195.33930558 19.42761195 C195.34963265 22.06842177 195.34564399 24.70901405 195.3416748 27.34983826 C195.34602147 29.24214886 195.35120446 31.1344577 195.35716248 33.02676392 C195.37056931 38.16934768 195.37112922 43.31185802 195.36859918 48.45445585 C195.36753051 52.74625893 195.37241022 57.03804709 195.3772046 61.32984698 C195.38830583 71.45484888 195.38873387 81.57981368 195.38269043 91.70481873 C195.37665048 102.15217612 195.38896082 112.59939884 195.4102605 123.04673326 C195.42787114 132.01414581 195.43387866 140.98151548 195.43062276 149.94894469 C195.42880874 155.30574111 195.43145781 160.66244148 195.4453373 166.01922226 C195.45790208 171.0572871 195.45598426 176.09514193 195.44292641 181.13320351 C195.44055806 182.98190316 195.44330455 184.83061753 195.45154953 186.67930031 C195.46199696 189.20395034 195.45393261 191.72789312 195.4412384 194.2525177 C195.44861269 194.98326519 195.45598697 195.71401269 195.46358472 196.46690404 C195.41437065 201.12280051 194.6345122 204.3727528 192.0670166 208.27415466 C188.88320757 210.69627345 186.33334952 210.35426451 182.46669006 209.90802002 C177.12575191 209.40413102 171.86627004 209.16083615 166.50730896 209.14285278 C165.73634734 209.1402651 164.96538573 209.13767741 164.17106164 209.13501132 C161.67144534 209.13056042 159.17186086 209.13143641 156.67224121 209.13230896 C154.85417599 209.12927071 153.03611153 209.12574743 151.2180481 209.1217804 C147.32987829 209.11394781 143.44171743 209.10876826 139.55354118 209.10548973 C133.4058697 209.09954084 127.25825489 209.08296878 121.11061096 209.06414795 C119.00046828 209.05781264 116.89032557 209.05148699 114.78018284 209.04517078 C113.72432425 209.04200497 112.66846565 209.03883916 111.58061135 209.03557742 C97.28548052 208.99357082 82.99037903 208.96047293 68.69519043 208.94822693 C59.02530615 208.9398586 49.35556539 208.9174266 39.68575293 208.87887126 C34.57505538 208.85909444 29.46457243 208.84671207 24.35383415 208.85170555 C19.55769244 208.85633622 14.76195964 208.84263381 9.96590042 208.81469345 C8.20505808 208.80775905 6.44417366 208.80767917 4.68333244 208.81489372 C2.2830211 208.8237373 -0.11592816 208.80816411 -2.51612854 208.78640747 C-3.21543505 208.79485001 -3.91474156 208.80329255 -4.63523918 208.81199092 C-7.89676165 208.75717008 -9.647056 208.492036 -12.27153683 206.49213886 C-15.77158234 201.81967706 -16.22494668 198.33834933 -16.20040894 192.54444885 C-16.20494005 191.76122249 -16.20947116 190.97799614 -16.21413958 190.17103565 C-16.22680956 187.54405327 -16.22516155 184.91727752 -16.22351074 182.29026794 C-16.22949436 180.40780876 -16.23629952 178.52535204 -16.24386597 176.64289856 C-16.26154983 171.52718014 -16.26622234 166.4115286 -16.26749754 161.29578257 C-16.2693958 157.02634627 -16.27675248 152.75692559 -16.28384173 148.4874953 C-16.30013225 138.4152344 -16.30501006 128.34300926 -16.30358887 118.27073669 C-16.30238715 107.87787672 -16.3234936 97.48522432 -16.35507619 87.09241688 C-16.38122 78.17171187 -16.39195696 69.25107472 -16.39067805 60.33033168 C-16.39016787 55.00144398 -16.39588191 49.67274072 -16.41703415 44.34389114 C-16.43638463 39.33204611 -16.43656281 34.32056207 -16.42200089 29.30870438 C-16.41990775 27.46967543 -16.42464367 25.63062408 -16.4367218 23.79163361 C-16.45214915 21.27993975 -16.44288347 18.76949455 -16.42745972 16.25782776 C-16.43774684 15.53097121 -16.44803397 14.80411467 -16.45863283 14.05523217 C-16.3902934 9.01542904 -15.17406831 6.10957149 -11.9329834 2.27415466 C-8.41705435 -0.44742176 -4.26332914 -0.01368939 0 0 Z " fill="#0000F4" transform="translate(37.9329833984375,17.725845336914063)"/>
<path d="M0 0 C1.06992187 0.00644531 2.13984375 0.01289063 3.2421875 0.01953125 C4.35335937 0.03628906 5.46453125 0.05304687 6.609375 0.0703125 C7.73601563 0.07933594 8.86265625 0.08835937 10.0234375 0.09765625 C12.80229865 0.12120592 15.5807289 0.1540957 18.359375 0.1953125 C18.854375 1.6803125 18.854375 1.6803125 19.359375 3.1953125 C11.109375 3.1953125 2.859375 3.1953125 -5.640625 3.1953125 C-5.970625 4.1853125 -6.300625 5.1753125 -6.640625 6.1953125 C-7.630625 6.1953125 -8.620625 6.1953125 -9.640625 6.1953125 C-9.640625 70.2153125 -9.640625 134.2353125 -9.640625 200.1953125 C-8.320625 200.1953125 -7.000625 200.1953125 -5.640625 200.1953125 C-5.640625 201.1853125 -5.640625 202.1753125 -5.640625 203.1953125 C18.58564988 203.31217664 42.81188243 203.40031591 67.03838253 203.45437336 C78.28748441 203.48014168 89.53641102 203.51526618 100.78540039 203.57250977 C110.59140678 203.6223865 120.39728622 203.65461348 130.20341593 203.66575497 C135.39449281 203.67226645 140.58520656 203.68754198 145.77616692 203.72396278 C150.66569138 203.75798956 155.55470432 203.76835191 160.44433594 203.76085091 C162.23536016 203.76222246 164.02640212 203.77211507 165.81732368 203.79133987 C168.27144904 203.81638386 170.72366758 203.81017816 173.17784119 203.79658508 C173.87923294 203.81114929 174.5806247 203.8257135 175.30327076 203.84071904 C181.95228801 203.74182295 183.73036026 201.87809847 190.359375 198.1953125 C190.689375 134.1753125 191.019375 70.1553125 191.359375 4.1953125 C190.699375 4.1953125 190.039375 4.1953125 189.359375 4.1953125 C189.359375 3.5353125 189.359375 2.8753125 189.359375 2.1953125 C133.589375 2.1953125 77.819375 2.1953125 20.359375 2.1953125 C20.359375 1.5353125 20.359375 0.8753125 20.359375 0.1953125 C42.58585893 0.07858397 64.81229243 -0.00962431 87.03902054 -0.06374836 C97.35896288 -0.08954551 107.67871494 -0.12472491 117.99853516 -0.18188477 C126.99181993 -0.23167347 135.98496692 -0.26396752 144.97838569 -0.27512997 C149.74174792 -0.28165643 154.50471592 -0.29702668 159.26795197 -0.33333778 C163.74954759 -0.36722573 168.23058586 -0.37775512 172.71229744 -0.37022591 C174.35868163 -0.37160369 176.00508409 -0.38157932 177.65135765 -0.40071487 C179.89710537 -0.42554233 182.14074051 -0.41963294 184.38653564 -0.40596008 C185.64386127 -0.41056905 186.9011869 -0.41517801 188.19661331 -0.41992664 C191.359375 0.1953125 191.359375 0.1953125 193.67017746 2.48289204 C194.50633024 3.82554017 194.50633024 3.82554017 195.359375 5.1953125 C195.76649814 5.79822931 196.17362127 6.40114613 196.59308147 7.02233315 C197.74729388 10.29533446 197.63769261 13.53505033 197.62007141 16.96298218 C197.62389696 17.75029209 197.62772251 18.537602 197.63166398 19.34876978 C197.64199105 21.98957961 197.63800239 24.63017189 197.6340332 27.27099609 C197.63837987 29.1633067 197.64356286 31.05561554 197.64952087 32.94792175 C197.66292771 38.09050551 197.66348762 43.23301585 197.66095757 48.37561369 C197.6598889 52.66741677 197.66476862 56.95920493 197.669563 61.25100482 C197.68066423 71.37600671 197.68109226 81.50097152 197.67504883 91.62597656 C197.66900887 102.07333396 197.68131922 112.52055668 197.7026189 122.9678911 C197.72022954 131.93530365 197.72623706 140.90267332 197.72298115 149.87010252 C197.72116714 155.22689894 197.7238162 160.58359932 197.73769569 165.9403801 C197.75026048 170.97844494 197.74834266 176.01629977 197.73528481 181.05436134 C197.73291645 182.90306099 197.73566295 184.75177536 197.74390793 186.60045815 C197.75435536 189.12510818 197.74629101 191.64905096 197.7335968 194.17367554 C197.74097109 194.90442303 197.74834537 195.63517052 197.75594312 196.38806188 C197.70672904 201.04395835 196.9268706 204.29391064 194.359375 208.1953125 C191.17556597 210.61743129 188.62570791 210.27542234 184.75904846 209.82917786 C179.41811031 209.32528886 174.15862844 209.08199398 168.79966736 209.06401062 C168.02870574 209.06142294 167.25774412 209.05883525 166.46342003 209.05616915 C163.96380374 209.05171825 161.46421925 209.05259425 158.96459961 209.0534668 C157.14653439 209.05042854 155.32846993 209.04690527 153.51040649 209.04293823 C149.62223669 209.03510564 145.73407583 209.0299261 141.84589958 209.02664757 C135.6982281 209.02069868 129.55061329 209.00412662 123.40296936 208.98530579 C121.29282668 208.97897047 119.18268397 208.97264482 117.07254124 208.96632862 C116.01668265 208.96316281 114.96082405 208.959997 113.87296975 208.95673525 C99.57783892 208.91472866 85.28273743 208.88163077 70.98754883 208.86938477 C61.31766455 208.86101643 51.64792379 208.83858444 41.97811133 208.8000291 C36.86741377 208.78025228 31.75693083 208.76786991 26.64619255 208.77286339 C21.85005084 208.77749405 17.05431804 208.76379165 12.25825882 208.73585129 C10.49741648 208.72891689 8.73653206 208.728837 6.97569084 208.73605156 C4.57537949 208.74489514 2.17643023 208.72932195 -0.22377014 208.70756531 C-0.92307665 208.71600784 -1.62238317 208.72445038 -2.34288079 208.73314875 C-5.60440325 208.67832792 -7.3546976 208.41319384 -9.97917843 206.4132967 C-13.47922394 201.7408349 -13.93258828 198.25950717 -13.90805054 192.46560669 C-13.91258165 191.68238033 -13.91711276 190.89915397 -13.92178118 190.09219348 C-13.93445117 187.4652111 -13.93280315 184.83843535 -13.93115234 182.21142578 C-13.93713596 180.3289666 -13.94394112 178.44650988 -13.95150757 176.5640564 C-13.96919143 171.44833797 -13.97386395 166.33268643 -13.97513914 161.2169404 C-13.9770374 156.94750411 -13.98439408 152.67808343 -13.99148333 148.40865314 C-14.00777385 138.33639224 -14.01265167 128.26416709 -14.01123047 118.19189453 C-14.01002875 107.79903456 -14.03113521 97.40638216 -14.0627178 87.01357472 C-14.0888616 78.0928697 -14.09959856 69.17223256 -14.09831965 60.25148952 C-14.09780947 54.92260182 -14.10352351 49.59389856 -14.12467575 44.26504898 C-14.14402624 39.25320395 -14.14420441 34.24171991 -14.12964249 29.22986221 C-14.12754935 27.39083327 -14.13228527 25.55178192 -14.1443634 23.71279144 C-14.15979076 21.20109759 -14.15052507 18.69065239 -14.13510132 16.1789856 C-14.14538844 15.45212905 -14.15567557 14.72527251 -14.16627443 13.97639 C-14.09794838 8.93757404 -12.78414968 6.08946406 -9.640625 2.1953125 C-6.50972558 -0.05335973 -3.7921408 -0.04034192 0 0 Z " fill="#0E0DE1" transform="translate(35.640625,17.8046875)"/>
<path d="M0 0 C22.22648393 -0.11672853 44.45291743 -0.20493681 66.67964554 -0.25906086 C76.99958788 -0.28485801 87.31933994 -0.32003741 97.63916016 -0.37719727 C106.63244493 -0.42698597 115.62559192 -0.45928002 124.61901069 -0.47044247 C129.38237292 -0.47696893 134.14534092 -0.49233918 138.90857697 -0.52865028 C143.39017259 -0.56253823 147.87121086 -0.57306762 152.35292244 -0.56553841 C153.99930663 -0.56691619 155.64570909 -0.57689182 157.29198265 -0.59602737 C159.53773037 -0.62085483 161.78136551 -0.61494544 164.02716064 -0.60127258 C165.28448627 -0.60588155 166.5418119 -0.61049051 167.83723831 -0.61523914 C171 -0 171 -0 173.31080246 2.28757954 C174.14695524 3.63022767 174.14695524 3.63022767 175 5 C175.40712314 5.60291681 175.81424627 6.20583363 176.23370647 6.82702065 C177.38791888 10.10002196 177.27831761 13.33973783 177.26069641 16.76766968 C177.26452196 17.55497959 177.26834751 18.3422895 177.27228898 19.15345728 C177.28261605 21.79426711 177.27862739 24.43485939 177.2746582 27.07568359 C177.27900487 28.9679942 177.28418786 30.86030304 177.29014587 32.75260925 C177.30355271 37.89519301 177.30411262 43.03770335 177.30158257 48.18030119 C177.3005139 52.47210427 177.30539362 56.76389243 177.310188 61.05569232 C177.32128923 71.18069421 177.32171726 81.30565902 177.31567383 91.43066406 C177.30963387 101.87802146 177.32194422 112.32524418 177.3432439 122.7725786 C177.36085454 131.73999115 177.36686206 140.70736082 177.36360615 149.67479002 C177.36179214 155.03158644 177.3644412 160.38828682 177.37832069 165.7450676 C177.39088548 170.78313244 177.38896766 175.82098727 177.37590981 180.85904884 C177.37354145 182.70774849 177.37628795 184.55646286 177.38453293 186.40514565 C177.39498036 188.92979568 177.38691601 191.45373846 177.3742218 193.97836304 C177.38159609 194.70911053 177.38897037 195.43985802 177.39656812 196.19274938 C177.3473114 200.85267997 176.44012859 204.03324083 174 208 C170.83575399 210.40046249 167.87306682 210.17604849 164 210 C164 209.34 164 208.68 164 208 C167.465 207.01 167.465 207.01 171 206 C172.07727229 196.00283894 172.13595564 186.0611281 172.11352539 176.02246094 C172.11324279 174.23746238 172.11340267 172.4524637 172.1139679 170.66746521 C172.11425304 165.85633544 172.10840231 161.04523095 172.10139394 156.23410702 C172.09511304 151.19328377 172.09455287 146.15245985 172.09336853 141.1116333 C172.09026912 131.58159059 172.08207458 122.05155944 172.07201904 112.52152181 C172.06081459 101.66534524 172.05533656 90.80916811 172.05032361 79.95298719 C172.03989072 57.63531836 172.02231836 35.31765991 172 13 C171.67 13 171.34 13 171 13 C171 10.03 171 7.06 171 4 C170.34 4 169.68 4 169 4 C169 3.34 169 2.68 169 2 C113.23 2 57.46 2 0 2 C0 1.34 0 0.68 0 0 Z " fill="#4141E1" transform="translate(56,18)"/>
<path d="M0 0 C1.06992187 0.00644531 2.13984375 0.01289063 3.2421875 0.01953125 C4.35335937 0.03628906 5.46453125 0.05304687 6.609375 0.0703125 C7.73601563 0.07933594 8.86265625 0.08835937 10.0234375 0.09765625 C12.80229865 0.12120592 15.5807289 0.1540957 18.359375 0.1953125 C18.854375 1.6803125 18.854375 1.6803125 19.359375 3.1953125 C11.109375 3.1953125 2.859375 3.1953125 -5.640625 3.1953125 C-5.970625 4.1853125 -6.300625 5.1753125 -6.640625 6.1953125 C-7.630625 6.1953125 -8.620625 6.1953125 -9.640625 6.1953125 C-9.640625 71.5353125 -9.640625 136.8753125 -9.640625 204.1953125 C-10.300625 204.1953125 -10.960625 204.1953125 -11.640625 204.1953125 C-14.06254231 200.45907431 -13.92625988 196.76523363 -13.90805054 192.46560669 C-13.91258165 191.68238033 -13.91711276 190.89915397 -13.92178118 190.09219348 C-13.93445117 187.4652111 -13.93280315 184.83843535 -13.93115234 182.21142578 C-13.93713596 180.3289666 -13.94394112 178.44650988 -13.95150757 176.5640564 C-13.96919143 171.44833797 -13.97386395 166.33268643 -13.97513914 161.2169404 C-13.9770374 156.94750411 -13.98439408 152.67808343 -13.99148333 148.40865314 C-14.00777385 138.33639224 -14.01265167 128.26416709 -14.01123047 118.19189453 C-14.01002875 107.79903456 -14.03113521 97.40638216 -14.0627178 87.01357472 C-14.0888616 78.0928697 -14.09959856 69.17223256 -14.09831965 60.25148952 C-14.09780947 54.92260182 -14.10352351 49.59389856 -14.12467575 44.26504898 C-14.14402624 39.25320395 -14.14420441 34.24171991 -14.12964249 29.22986221 C-14.12754935 27.39083327 -14.13228527 25.55178192 -14.1443634 23.71279144 C-14.15979076 21.20109759 -14.15052507 18.69065239 -14.13510132 16.1789856 C-14.14538844 15.45212905 -14.15567557 14.72527251 -14.16627443 13.97639 C-14.09794838 8.93757404 -12.78414968 6.08946406 -9.640625 2.1953125 C-6.50972558 -0.05335973 -3.7921408 -0.04034192 0 0 Z " fill="#1716DC" transform="translate(35.640625,17.8046875)"/>
<path d="M0 0 C0.66 0 1.32 0 2 0 C2.07006302 24.93004578 2.12297494 49.86007681 2.15543652 74.79020119 C2.17090921 86.36553869 2.1920065 97.94081503 2.22631836 109.51611328 C2.2562083 119.60445648 2.27557207 129.69275539 2.28226548 139.78114164 C2.28617841 145.12348435 2.29538283 150.46570035 2.31719017 155.80800247 C2.33754884 160.83614111 2.34383501 165.86410082 2.33932304 170.89227676 C2.34014852 172.73775708 2.34611782 174.58324337 2.35761642 176.42868805 C2.37255088 178.94914853 2.36895023 181.46893417 2.36076355 183.9894104 C2.36950207 184.71899542 2.3782406 185.44858045 2.38724393 186.20027411 C2.34635732 190.86011285 1.44034812 194.03392243 -1 198 C-4.16424601 200.40046249 -7.12693318 200.17604849 -11 200 C-11 199.34 -11 198.68 -11 198 C-8.36 197.67 -5.72 197.34 -3 197 C-2.67 195.35 -2.34 193.7 -2 192 C-1.34 192 -0.68 192 0 192 C0 128.64 0 65.28 0 0 Z " fill="#A1A1EF" transform="translate(231,28)"/>
<path d="M0 0 C0.33 0.66 0.66 1.32 1 2 C56.77 2 112.54 2 170 2 C170 2.66 170 3.32 170 4 C170.66 4 171.32 4 172 4 C172 5.65 172 7.3 172 9 C171.01 9 170.02 9 169 9 C169 7.68 169 6.36 169 5 C72.97 4.505 72.97 4.505 -25 4 C-25 3.67 -25 3.34 -25 3 C-16.75 3 -8.5 3 0 3 C0 2.01 0 1.02 0 0 Z " fill="#0505CD" transform="translate(55,18)"/>
<path d="M0 0 C1.06992187 0.00644531 2.13984375 0.01289063 3.2421875 0.01953125 C4.35335937 0.03628906 5.46453125 0.05304687 6.609375 0.0703125 C7.73601563 0.07933594 8.86265625 0.08835937 10.0234375 0.09765625 C12.80229865 0.12120592 15.5807289 0.1540957 18.359375 0.1953125 C18.854375 1.6803125 18.854375 1.6803125 19.359375 3.1953125 C11.109375 3.1953125 2.859375 3.1953125 -5.640625 3.1953125 C-5.970625 4.1853125 -6.300625 5.1753125 -6.640625 6.1953125 C-7.630625 6.1953125 -8.620625 6.1953125 -9.640625 6.1953125 C-9.640625 7.1853125 -9.640625 8.1753125 -9.640625 9.1953125 C-10.300625 9.1953125 -10.960625 9.1953125 -11.640625 9.1953125 C-11.970625 72.2253125 -12.300625 135.2553125 -12.640625 200.1953125 C-12.970625 200.1953125 -13.300625 200.1953125 -13.640625 200.1953125 C-13.7340423 175.26528328 -13.8045915 150.33528027 -13.84787369 125.40511131 C-13.868504 113.82974778 -13.89663368 102.25449297 -13.94238281 90.67919922 C-13.98223607 80.5908557 -14.0080544 70.50259091 -14.01697898 60.41417086 C-14.02219626 55.07178479 -14.03446871 49.72962395 -14.06354523 44.38731003 C-14.09069032 39.35913467 -14.09907176 34.33127741 -14.09305573 29.30303574 C-14.09415636 27.45754773 -14.1021156 25.61204911 -14.1174469 23.76662445 C-14.13736086 21.24599315 -14.13255944 18.72656139 -14.12164307 16.2059021 C-14.13329443 15.47631708 -14.1449458 14.74673205 -14.15695024 13.99503839 C-14.09787415 8.94537081 -12.79320555 6.09657011 -9.640625 2.1953125 C-6.50972558 -0.05335973 -3.7921408 -0.04034192 0 0 Z " fill="#5454DE" transform="translate(35.640625,17.8046875)"/>
<path d="M0 0 C0.7833762 -0.00170885 1.5667524 -0.0034177 2.37386727 -0.00517833 C5.00106698 -0.00847484 7.62801177 0.00253308 10.25518799 0.01345825 C12.1375274 0.01402233 14.01986726 0.01370587 15.90220642 0.01257324 C21.01548128 0.0119986 26.12866261 0.02377097 31.2419157 0.03772116 C36.58440873 0.05020993 41.92690381 0.05139755 47.26940918 0.05377197 C57.38763854 0.05999219 67.50582477 0.07641035 77.62403512 0.09647095 C89.14264514 0.11881309 100.6612572 0.12981914 112.17988348 0.13986182 C135.87590735 0.16077609 159.57189291 0.19596261 183.2678833 0.24050903 C183.2678833 0.57050903 183.2678833 0.90050903 183.2678833 1.24050903 C182.30543418 1.24013201 181.34298506 1.23975498 180.35137081 1.23936653 C156.93217686 1.23156216 133.51321436 1.25814783 110.0941 1.32078743 C98.76875936 1.3502835 87.44360645 1.36860741 76.1182251 1.36062622 C66.24692886 1.3536981 56.37592313 1.36773632 46.50469834 1.40694511 C41.27793096 1.42697396 36.05161982 1.43650761 30.82482719 1.42093277 C25.90392631 1.40660072 20.9838971 1.42032703 16.06310844 1.4554615 C14.25838779 1.4634222 12.45358843 1.46118125 10.64889908 1.44790077 C-0.03169197 0.95919986 -0.03169197 0.95919986 -9.36039734 5.28881836 C-10.14306473 6.26287628 -10.92573212 7.2369342 -11.7321167 8.24050903 C-11.7321167 6.26050903 -11.7321167 4.28050903 -11.7321167 2.24050903 C-7.99329298 -0.18747193 -4.30254953 -0.03426468 0 0 Z " fill="#0303DC" transform="translate(37.73211669921875,21.759490966796875)"/>
<path d="M0 0 C3.08089673 2.77280706 4.68775452 5.06326356 6 9 C5.34 9 4.68 9 4 9 C4 72.36 4 135.72 4 201 C3.67 201 3.34 201 3 201 C2.99668985 200.01270401 2.99337971 199.02540802 2.98996925 198.00819397 C2.90895696 173.97950235 2.81663582 149.95087444 2.71247292 125.92227173 C2.66236194 114.30219843 2.61591879 102.68213214 2.578125 91.06201172 C2.5451727 80.93332564 2.50532349 70.80469413 2.45720994 60.67606831 C2.43197724 55.31359916 2.41018636 49.95116607 2.39665604 44.58865356 C2.38380647 39.53915167 2.36172072 34.48977361 2.33261681 29.44034004 C2.32356368 27.5892731 2.31785609 25.73818623 2.31578636 23.88709831 C2.3124478 21.35428002 2.2969275 18.82180945 2.2784729 16.2890625 C2.28040763 15.56141221 2.28234237 14.83376192 2.28433573 14.08406162 C2.23038488 9.11047754 1.35161841 4.78960652 0 0 Z " fill="#5757E4" transform="translate(227,19)"/>
<path d="M0 0 C0.33 0.66 0.66 1.32 1 2 C56.77 2 112.54 2 170 2 C170 2.66 170 3.32 170 4 C170.66 4 171.32 4 172 4 C172 5.65 172 7.3 172 9 C171.01 9 170.02 9 169 9 C168.67 7.35 168.34 5.7 168 4 C84.84 3.505 84.84 3.505 0 3 C0 2.01 0 1.02 0 0 Z " fill="#0F0FC2" transform="translate(55,18)"/>
<path d="M0 0 C1.07314453 0.00322266 2.14628906 0.00644531 3.25195312 0.00976562 C4.37150391 0.01814453 5.49105469 0.02652344 6.64453125 0.03515625 C8.34125977 0.04192383 8.34125977 0.04192383 10.07226562 0.04882812 C12.86724052 0.06062127 15.66210945 0.07707975 18.45703125 0.09765625 C18.78703125 1.08765625 19.11703125 2.07765625 19.45703125 3.09765625 C11.20703125 3.09765625 2.95703125 3.09765625 -5.54296875 3.09765625 C-5.87296875 4.08765625 -6.20296875 5.07765625 -6.54296875 6.09765625 C-7.53296875 6.09765625 -8.52296875 6.09765625 -9.54296875 6.09765625 C-9.54296875 7.08765625 -9.54296875 8.07765625 -9.54296875 9.09765625 C-10.20296875 9.09765625 -10.86296875 9.09765625 -11.54296875 9.09765625 C-11.87296875 10.41765625 -12.20296875 11.73765625 -12.54296875 13.09765625 C-12.86447818 8.99841102 -12.95681712 6.75410539 -10.73046875 3.22265625 C-7.33467926 -0.07611068 -4.53410665 -0.02398998 0 0 Z " fill="#4F4FD8" transform="translate(35.54296875,17.90234375)"/>
<path d="M0 0 C0.33 0 0.66 0 1 0 C1 2.64 1 5.28 1 8 C-2.18824568 9.59412284 -5.62896662 9.10174735 -9.125 9.0625 C-9.87910156 9.05798828 -10.63320312 9.05347656 -11.41015625 9.04882812 C-13.27347127 9.03703499 -15.13674555 9.01909942 -17 9 C-17 8.67 -17 8.34 -17 8 C-16.19175781 7.84144531 -15.38351563 7.68289062 -14.55078125 7.51953125 C-8.17412706 6.12728227 -4.07621656 5.20069009 0 0 Z " fill="#0A0BCD" transform="translate(226,216)"/>
<path d="M0 0 C0.33 0 0.66 0 1 0 C1.05407567 2.58361518 1.093707 5.16609255 1.125 7.75 C1.14175781 8.47960937 1.15851563 9.20921875 1.17578125 9.9609375 C1.23818428 16.82527053 1.23818428 16.82527053 -1 20 C-4.23162551 22.30830393 -7.1189265 22.17641243 -11 22 C-11 21.34 -11 20.68 -11 20 C-7.04 19.505 -7.04 19.505 -3 19 C-2.67 17.35 -2.34 15.7 -2 14 C-1.34 14 -0.68 14 0 14 C0 9.38 0 4.76 0 0 Z " fill="#999AEB" transform="translate(231,206)"/>
<path d="M0 0 C0.66 0.99 1.32 1.98 2 3 C0.68 3.33 -0.64 3.66 -2 4 C-2 4.99 -2 5.98 -2 7 C-2.66 7 -3.32 7 -4 7 C-4.33 8.32 -4.66 9.64 -5 11 C-5.3125 7.75 -5.3125 7.75 -5 4 C-2.5 1.5625 -2.5 1.5625 0 0 Z " fill="#312FD1" transform="translate(28,20)"/>
<path d="M0 0 C0 0.66 0 1.32 0 2 C-6.93 1.505 -6.93 1.505 -14 1 C-14 0.67 -14 0.34 -14 0 C-12.2300132 -0.19532961 -10.45895721 -0.38098882 -8.6875 -0.5625 C-7.70136719 -0.66691406 -6.71523438 -0.77132813 -5.69921875 -0.87890625 C-3 -1 -3 -1 0 0 Z " fill="#4444D5" transform="translate(55,19)"/>
<path d="M0 0 C0.99 0 1.98 0 3 0 C3 0.66 3 1.32 3 2 C5.97 2 8.94 2 12 2 C12 2.33 12 2.66 12 3 C10.56465159 3.2226746 9.12654475 3.42761906 7.6875 3.625 C6.88699219 3.74101562 6.08648437 3.85703125 5.26171875 3.9765625 C3 4 3 4 0 2 C0 1.34 0 0.68 0 0 Z " fill="#1E1FC5" transform="translate(25,222)"/>
</svg>
